<svg width="48" height="48" viewBox="0 0 48 48" fill="none" xmlns="http://www.w3.org/2000/svg">
<path d="M25.0305 13.9139L14.04 12.2444C13.53 12.1649 13.0095 12.3044 12.6195 12.6344C12.2295 12.9749 12 13.4639 12 13.9739V35.0444C12 35.5949 12.45 36.0449 13.0005 36.0449H16.251V30.7949C16.251 29.8244 17.031 29.0444 18.0015 29.0444H20.502C21.4725 29.0444 22.2525 29.8244 22.2525 30.7949V36.0449H26.502V15.6449C26.5005 14.7839 25.8795 14.0549 25.0305 13.9139ZM17.5005 26.7944H16.0005C15.5865 26.7944 15.2505 26.4584 15.2505 26.0444C15.2505 25.6304 15.5865 25.2944 16.0005 25.2944H17.5005C17.9145 25.2944 18.2505 25.6304 18.2505 26.0444C18.2505 26.4584 17.9145 26.7944 17.5005 26.7944ZM17.5005 23.7944H16.0005C15.5865 23.7944 15.2505 23.4584 15.2505 23.0444C15.2505 22.6304 15.5865 22.2944 16.0005 22.2944H17.5005C17.9145 22.2944 18.2505 22.6304 18.2505 23.0444C18.2505 23.4584 17.9145 23.7944 17.5005 23.7944ZM17.5005 20.7944H16.0005C15.5865 20.7944 15.2505 20.4584 15.2505 20.0444C15.2505 19.6304 15.5865 19.2944 16.0005 19.2944H17.5005C17.9145 19.2944 18.2505 19.6304 18.2505 20.0444C18.2505 20.4584 17.9145 20.7944 17.5005 20.7944ZM17.5005 17.7944H16.0005C15.5865 17.7944 15.2505 17.4584 15.2505 17.0444C15.2505 16.6304 15.5865 16.2944 16.0005 16.2944H17.5005C17.9145 16.2944 18.2505 16.6304 18.2505 17.0444C18.2505 17.4584 17.9145 17.7944 17.5005 17.7944ZM22.5 26.7944H21C20.586 26.7944 20.25 26.4584 20.25 26.0444C20.25 25.6304 20.586 25.2944 21 25.2944H22.5C22.914 25.2944 23.25 25.6304 23.25 26.0444C23.25 26.4584 22.914 26.7944 22.5 26.7944ZM22.5 23.7944H21C20.586 23.7944 20.25 23.4584 20.25 23.0444C20.25 22.6304 20.586 22.2944 21 22.2944H22.5C22.914 22.2944 23.25 22.6304 23.25 23.0444C23.25 23.4584 22.914 23.7944 22.5 23.7944ZM22.5 20.7944H21C20.586 20.7944 20.25 20.4584 20.25 20.0444C20.25 19.6304 20.586 19.2944 21 19.2944H22.5C22.914 19.2944 23.25 19.6304 23.25 20.0444C23.25 20.4584 22.914 20.7944 22.5 20.7944ZM22.5 17.7944H21C20.586 17.7944 20.25 17.4584 20.25 17.0444C20.25 16.6304 20.586 16.2944 21 16.2944H22.5C22.914 16.2944 23.25 16.6304 23.25 17.0444C23.25 17.4584 22.914 17.7944 22.5 17.7944Z" fill="#232536"/>
<path d="M34.6205 22.887L27.5 21.396V36.045H34.25C35.2145 36.045 36.0005 35.2605 36.0005 34.2945V24.597C36.0005 23.7705 35.4365 23.067 34.6205 22.887ZM32.2505 33.045H30.7505C30.3365 33.045 30.0005 32.709 30.0005 32.295C30.0005 31.881 30.3365 31.545 30.7505 31.545H32.2505C32.6645 31.545 33.0005 31.881 33.0005 32.295C33.0005 32.709 32.6645 33.045 32.2505 33.045ZM32.2505 30.045H30.7505C30.3365 30.045 30.0005 29.709 30.0005 29.295C30.0005 28.881 30.3365 28.545 30.7505 28.545H32.2505C32.6645 28.545 33.0005 28.881 33.0005 29.295C33.0005 29.709 32.6645 30.045 32.2505 30.045ZM32.2505 27.045H30.7505C30.3365 27.045 30.0005 26.709 30.0005 26.295C30.0005 25.881 30.3365 25.545 30.7505 25.545H32.2505C32.6645 25.545 33.0005 25.881 33.0005 26.295C33.0005 26.709 32.6645 27.045 32.2505 27.045Z" fill="#FFD050"/>
</svg>
